<svg width="67" height="26" viewBox="0 0 67 26" fill="none" xmlns="http://www.w3.org/2000/svg">
<path d="M5.292 0.439999L12.204 19.772L19.044 0.439999H24.264L14.292 26H10.116L0.072 0.439999H5.292ZM26.9921 26V0.439999H31.9601V26H26.9921ZM37.2929 26V0.439999H48.5969C49.7729 0.439999 50.8529 0.691999 51.8369 1.196C52.8449 1.676 53.7089 2.324 54.4289 3.14C55.1489 3.932 55.7129 4.844 56.1209 5.876C56.5289 6.884 56.7329 7.904 56.7329 8.936C56.7329 10.592 56.3129 12.104 55.4729 13.472C54.6569 14.816 53.5409 15.788 52.1249 16.388L57.9569 26H52.3769L47.1569 17.432H42.2609V26H37.2929ZM42.2609 13.076H48.4889C48.9449 13.076 49.3649 12.968 49.7489 12.752C50.1569 12.536 50.5049 12.248 50.7929 11.888C51.0809 11.504 51.3089 11.06 51.4769 10.556C51.6449 10.052 51.7289 9.512 51.7289 8.936C51.7289 8.336 51.6329 7.784 51.4409 7.28C51.2489 6.776 50.9849 6.344 50.6489 5.984C50.3369 5.6 49.9649 5.312 49.5329 5.12C49.1249 4.904 48.7049 4.796 48.2729 4.796H42.2609V13.076ZM61.2343 26V0.439999H66.2023V26H61.2343Z" fill="#346EA6"/>
</svg>
