<svg width="29" height="29" viewBox="0 0 29 29" fill="none" xmlns="http://www.w3.org/2000/svg">
<circle cx="14.5" cy="14.5" r="14" stroke="#346EA6"/>
<path d="M19.7796 16.6164C19.4278 17.8634 18.6841 18.9642 17.6583 19.7561C16.7702 20.4391 15.7085 20.8598 14.5935 20.9706C13.4785 21.0814 12.3548 20.8778 11.3496 20.383C10.3443 19.8882 9.49776 19.1219 8.90577 18.1709C8.31378 17.2198 8.00002 16.1221 8 15.0019C7.99848 13.8094 8.35283 12.6435 9.01774 11.6533C9.68264 10.6632 10.6279 9.89378 11.7325 9.44357C12.8372 8.99335 14.0511 8.88277 15.219 9.12596C16.3869 9.36916 17.4557 9.95507 18.2886 10.8088L18.2117 12.1939L17.732 12.0528C17.4897 11.7458 17.2105 11.4698 16.9008 11.2309C16.0707 10.5884 15.0497 10.2415 13.9998 10.245C11.376 10.245 9.24135 12.379 9.24135 15.0019C9.24135 17.6249 11.376 19.7589 13.9998 19.7589C15.0497 19.7625 16.0706 19.4155 16.9008 18.773C17.7145 18.145 18.3046 17.2721 18.5839 16.283C18.6055 16.2042 18.6424 16.1303 18.6926 16.0657C18.7428 16.0012 18.8052 15.9472 18.8764 15.9068C18.9475 15.8664 19.0259 15.8405 19.1071 15.8306C19.1883 15.8206 19.2706 15.8268 19.3494 15.8488C19.4282 15.8707 19.5019 15.9081 19.5662 15.9586C19.6305 16.0091 19.6842 16.0718 19.7242 16.1432C19.7641 16.2145 19.7896 16.293 19.7991 16.3742C19.8087 16.4555 19.802 16.5378 19.7796 16.6164V16.6164ZM19.53 14.0611C19.6064 14.0071 19.6697 13.9366 19.715 13.8548C19.7604 13.773 19.7866 13.682 19.7918 13.5886L19.9987 9.86576C20.004 9.78396 19.9931 9.70191 19.9665 9.62437C19.9399 9.54682 19.8982 9.47531 19.8438 9.41397C19.7894 9.35262 19.7234 9.30266 19.6496 9.26696C19.5758 9.23127 19.4956 9.21055 19.4138 9.206C19.3319 9.20145 19.2499 9.21317 19.1726 9.24047C19.0953 9.26778 19.0241 9.31013 18.9633 9.36507C18.9024 9.42002 18.8531 9.48647 18.8181 9.5606C18.7831 9.63473 18.7631 9.71505 18.7593 9.79694L18.5959 12.738L15.8302 11.9248C15.7518 11.901 15.6694 11.893 15.5879 11.9012C15.5063 11.9094 15.4272 11.9337 15.3551 11.9726C15.283 12.0115 15.2193 12.0643 15.1677 12.128C15.1161 12.1916 15.0777 12.2649 15.0545 12.3435C15.0314 12.4221 15.0241 12.5045 15.033 12.5859C15.0419 12.6674 15.0668 12.7463 15.1064 12.818C15.1459 12.8898 15.1993 12.953 15.2634 13.004C15.3276 13.055 15.4012 13.0929 15.48 13.1153L18.9971 14.1494C19.0869 14.1758 19.1814 14.1816 19.2737 14.1663C19.3661 14.151 19.4537 14.115 19.5301 14.0611H19.53Z" fill="#346EA6"/>
</svg>
